ply
format ascii 1.0
comment Created by Blender 2.75 (sub 0) - www.blender.org, source file: ''
element vertex 90
property float x
property float y
property float z
property float nx
property float ny
property float nz
property uchar red
property uchar green
property uchar blue
element face 44
property list uchar uint vertex_indices
end_header
0.107399 0.320355 0.030982 1.000000 0.000000 0.000000 255 255 255
0.107399 0.082384 0.030982 1.000000 0.000000 0.000000 255 255 255
0.107399 0.082384 -0.093603 1.000000 0.000000 0.000000 255 255 255
-0.107399 0.082384 0.030982 0.000000 -0.063017 0.998012 255 255 255
0.107399 0.082384 0.030982 0.000000 -0.063017 0.998012 255 255 255
0.046774 0.149549 0.035223 0.000000 -0.063017 0.998012 255 255 255
-0.107399 0.320355 -0.093603 -1.000000 0.000000 0.000000 255 255 255
-0.107399 0.082384 -0.093603 -1.000000 0.000000 0.000000 255 255 255
-0.107399 0.082384 0.030982 -1.000000 0.000000 0.000000 255 255 255
0.107399 0.320355 -0.093603 0.000000 0.000000 -1.000000 255 255 255
0.107399 0.082384 -0.093603 0.000000 0.000000 -1.000000 255 255 255
-0.107399 0.082384 -0.093603 0.000000 0.000000 -1.000000 255 255 255
0.107399 0.082384 0.030982 0.000000 -1.000000 0.000000 255 255 255
-0.107399 0.082384 0.030982 0.000000 -1.000000 0.000000 255 255 255
-0.107399 0.082384 -0.093603 0.000000 -1.000000 0.000000 255 255 255
-0.107399 0.320355 0.030982 0.000000 1.000000 -0.000000 255 255 255
0.107399 0.320355 0.030982 0.000000 1.000000 -0.000000 255 255 255
0.107399 0.320355 -0.093603 0.000000 1.000000 -0.000000 255 255 255
0.107399 0.320355 -0.093603 1.000000 -0.000000 0.000000 255 255 255
0.046774 0.253190 0.035223 1.000000 -0.000000 0.000000 255 255 255
0.046774 0.253190 0.175204 1.000000 -0.000000 0.000000 255 255 255
0.046774 0.149549 0.175204 1.000000 -0.000000 0.000000 255 255 255
-0.107399 0.320355 0.030982 -1.000000 0.000000 0.000000 255 255 255
-0.107399 0.320355 -0.093603 0.000000 0.000000 -1.000000 255 255 255
0.107399 0.082384 -0.093603 0.000000 -1.000000 0.000000 255 255 255
-0.107399 0.320355 -0.093603 0.000000 1.000000 0.000000 255 255 255
-0.107399 0.082384 0.030982 -0.069785 0.000000 0.997562 255 255 255
-0.046774 0.149549 0.035223 -0.069785 0.000000 0.997562 255 255 255
-0.046774 0.253190 0.035223 -0.069785 0.000000 0.997562 255 255 255
-0.107399 0.320355 0.030982 0.000000 0.063017 0.998012 255 255 255
-0.046774 0.253190 0.035223 0.000000 0.063017 0.998012 255 255 255
0.046774 0.253190 0.035223 0.000000 0.063017 0.998012 255 255 255
0.107399 0.320355 0.030982 0.069785 -0.000000 0.997562 255 255 255
0.046774 0.253190 0.035223 0.069785 -0.000000 0.997562 255 255 255
0.046774 0.149549 0.035223 0.069785 -0.000000 0.997562 255 255 255
-0.046774 0.253190 0.175204 0.000000 0.290431 0.956896 255 255 255
-0.028285 0.232706 0.181421 0.000000 0.290431 0.956896 255 255 255
0.028285 0.232706 0.181421 0.000000 0.290431 0.956896 255 255 255
0.046774 0.149549 0.035223 0.000000 -1.000000 0.000000 255 255 255
0.046774 0.149549 0.175204 0.000000 -1.000000 0.000000 255 255 255
-0.046774 0.149549 0.175204 0.000000 -1.000000 0.000000 255 255 255
-0.046774 0.253190 0.035223 0.000000 1.000000 0.000000 255 255 255
-0.046774 0.253190 0.175204 0.000000 1.000000 0.000000 255 255 255
0.046774 0.253190 0.175204 0.000000 1.000000 0.000000 255 255 255
-0.046774 0.149549 0.035223 -1.000000 -0.000000 -0.000000 255 255 255
-0.046774 0.149549 0.175204 -1.000000 -0.000000 -0.000000 255 255 255
-0.046774 0.253190 0.175204 -1.000000 -0.000000 -0.000000 255 255 255
-0.028285 0.170033 0.181421 1.000000 0.000000 -0.000000 255 255 255
-0.028285 0.170033 0.050972 1.000000 0.000000 -0.000000 255 255 255
-0.028285 0.232706 0.050972 1.000000 0.000000 -0.000000 255 255 255
-0.046774 0.149549 0.175204 -0.318723 0.000000 0.947848 255 255 255
-0.028285 0.170033 0.181421 -0.318723 0.000000 0.947848 255 255 255
-0.028285 0.232706 0.181421 -0.318723 0.000000 0.947848 255 255 255
0.046774 0.149549 0.175204 0.318723 0.000000 0.947848 255 255 255
0.046774 0.253190 0.175204 0.318723 0.000000 0.947848 255 255 255
0.028285 0.232706 0.181421 0.318723 0.000000 0.947848 255 255 255
0.046774 0.149549 0.175204 0.000000 -0.290432 0.956896 255 255 255
0.028285 0.170033 0.181421 0.000000 -0.290432 0.956896 255 255 255
-0.028285 0.170033 0.181421 0.000000 -0.290432 0.956896 255 255 255
0.028285 0.170033 0.050972 -0.000000 0.000000 1.000000 255 255 255
0.028285 0.232706 0.050972 -0.000000 0.000000 1.000000 255 255 255
-0.028285 0.232706 0.050972 -0.000000 0.000000 1.000000 255 255 255
0.028285 0.232706 0.181421 -1.000000 0.000000 0.000000 255 255 255
0.028285 0.232706 0.050972 -1.000000 0.000000 0.000000 255 255 255
0.028285 0.170033 0.050972 -1.000000 0.000000 0.000000 255 255 255
0.028285 0.170033 0.181421 0.000000 1.000000 0.000000 255 255 255
0.028285 0.170033 0.050972 0.000000 1.000000 0.000000 255 255 255
-0.028285 0.170033 0.050972 0.000000 1.000000 0.000000 255 255 255
-0.028285 0.232706 0.181421 0.000000 -1.000000 0.000000 255 255 255
-0.028285 0.232706 0.050972 0.000000 -1.000000 0.000000 255 255 255
0.028285 0.232706 0.050972 0.000000 -1.000000 0.000000 255 255 255
-0.028285 0.170033 0.050972 0.000000 0.000000 1.000000 255 255 255
-0.046774 0.149549 0.035223 0.000000 -0.063017 0.998012 255 255 255
0.046774 0.149549 0.035223 1.000000 0.000000 0.000000 255 255 255
-0.107399 0.320355 0.030982 -0.069785 0.000000 0.997562 255 255 255
0.107399 0.320355 0.030982 -0.000000 0.063017 0.998012 255 255 255
0.107399 0.082384 0.030982 0.069785 0.000000 0.997562 255 255 255
0.046774 0.253190 0.175204 -0.000000 0.290431 0.956896 255 255 255
-0.046774 0.149549 0.035223 -0.000000 -1.000000 -0.000000 255 255 255
0.046774 0.253190 0.035223 -0.000000 1.000000 0.000000 255 255 255
-0.046774 0.253190 0.035223 -1.000000 0.000000 -0.000000 255 255 255
-0.028285 0.232706 0.181421 1.000000 0.000000 -0.000000 255 255 255
-0.046774 0.253190 0.175204 -0.318723 0.000000 0.947848 255 255 255
0.028285 0.170033 0.181421 0.318723 0.000000 0.947848 255 255 255
-0.046774 0.149549 0.175204 0.000000 -0.290431 0.956896 255 255 255
0.046774 0.149549 0.175204 0.000000 -0.290431 0.956896 255 255 255
-0.028285 0.170033 0.181421 0.000000 -0.290431 0.956896 255 255 255
0.028285 0.170033 0.181421 -1.000000 0.000000 0.000000 255 255 255
-0.028285 0.170033 0.181421 0.000000 1.000000 -0.000000 255 255 255
0.028285 0.232706 0.181421 0.000000 -1.000000 0.000000 255 255 255
3 0 1 2
3 3 4 5
3 6 7 8
3 9 10 11
3 12 13 14
3 15 16 17
3 18 0 2
3 19 20 21
3 22 6 8
3 23 9 11
3 24 12 14
3 25 15 17
3 26 27 28
3 29 30 31
3 32 33 34
3 35 36 37
3 38 39 40
3 41 42 43
3 44 45 46
3 47 48 49
3 50 51 52
3 53 54 55
3 56 57 58
3 59 60 61
3 62 63 64
3 65 66 67
3 68 69 70
3 71 59 61
3 72 3 5
3 73 19 21
3 74 26 28
3 75 29 31
3 76 32 34
3 77 35 37
3 78 38 40
3 79 41 43
3 80 44 46
3 81 47 49
3 82 50 52
3 83 53 55
3 84 85 86
3 87 62 64
3 88 65 67
3 89 68 70
