ply
format ascii 1.0
comment Created by Blender 2.75 (sub 0) - www.blender.org, source file: ''
element vertex 128
property float x
property float y
property float z
property float nx
property float ny
property float nz
property uchar red
property uchar green
property uchar blue
element face 76
property list uchar uint vertex_indices
end_header
0.338821 -0.031227 0.088821 0.000000 -0.000000 1.000000 255 255 255
0.088821 -0.031227 0.088821 0.000000 -0.000000 1.000000 255 255 255
0.211321 -0.041227 0.088821 0.000000 -0.000000 1.000000 255 255 255
-0.088821 -0.031227 0.088821 -1.000000 -0.000000 -0.000000 255 255 255
-0.088821 -0.031227 0.338821 -1.000000 -0.000000 -0.000000 255 255 255
-0.088821 0.031227 0.338821 -1.000000 -0.000000 -0.000000 255 255 255
-0.338821 -0.031227 -0.088821 0.000000 0.000000 -1.000000 255 255 255
-0.088821 -0.031227 -0.088821 0.000000 0.000000 -1.000000 255 255 255
-0.211321 -0.041227 -0.088821 0.000000 0.000000 -1.000000 255 255 255
0.088821 0.031227 -0.088821 0.000000 1.000000 0.000000 255 255 255
0.088821 0.031227 -0.338821 0.000000 1.000000 0.000000 255 255 255
-0.088821 0.031227 -0.338821 0.000000 1.000000 0.000000 255 255 255
0.088821 -0.031227 0.088821 0.000000 -1.000000 0.000000 255 255 255
-0.088821 -0.031227 0.088821 0.000000 -1.000000 0.000000 255 255 255
-0.088821 -0.031227 -0.088821 0.000000 -1.000000 0.000000 255 255 255
-0.088821 0.031227 0.088821 0.000000 1.000000 -0.000000 255 255 255
0.088821 0.031227 0.088821 0.000000 1.000000 -0.000000 255 255 255
0.088821 0.031227 -0.338821 0.000000 0.000000 -1.000000 255 255 255
0.088821 -0.031227 -0.338821 0.000000 0.000000 -1.000000 255 255 255
-0.088821 -0.031227 -0.338821 0.000000 0.000000 -1.000000 255 255 255
-0.088821 0.031227 -0.088821 -1.000000 0.000000 0.000000 255 255 255
-0.088821 0.031227 -0.338821 -1.000000 0.000000 0.000000 255 255 255
-0.088821 -0.031227 -0.338821 -1.000000 0.000000 0.000000 255 255 255
0.088821 -0.031227 -0.088821 1.000000 0.000000 -0.000000 255 255 255
0.088821 -0.031227 -0.338821 1.000000 0.000000 -0.000000 255 255 255
0.088821 0.031227 -0.338821 1.000000 0.000000 -0.000000 255 255 255
0.088821 -0.041227 -0.211321 1.000000 -0.000000 0.000000 255 255 255
-0.088821 0.031227 0.338821 0.000000 -0.000000 1.000000 255 255 255
-0.088821 -0.031227 0.338821 0.000000 -0.000000 1.000000 255 255 255
0.088821 -0.031227 0.338821 0.000000 -0.000000 1.000000 255 255 255
0.088821 -0.031227 0.088821 0.000000 -0.996685 -0.081362 255 255 255
0.088821 -0.041227 0.211321 0.000000 -0.996685 -0.081362 255 255 255
-0.088821 -0.041227 0.211321 0.000000 -0.996685 -0.081362 255 255 255
-0.088821 0.031227 0.338821 0.000000 1.000000 0.000000 255 255 255
0.088821 0.031227 0.338821 0.000000 1.000000 0.000000 255 255 255
0.088821 0.031227 0.088821 1.000000 -0.000000 0.000000 255 255 255
0.088821 0.031227 0.338821 1.000000 -0.000000 0.000000 255 255 255
0.088821 -0.031227 0.338821 1.000000 -0.000000 0.000000 255 255 255
0.338821 0.031227 0.088821 1.000000 0.000000 0.000000 255 255 255
0.338821 -0.031227 0.088821 1.000000 0.000000 0.000000 255 255 255
0.338821 -0.031227 -0.088821 1.000000 0.000000 0.000000 255 255 255
0.338821 0.031227 0.088821 0.000000 1.000000 -0.000000 255 255 255
0.338821 0.031227 -0.088821 0.000000 1.000000 -0.000000 255 255 255
0.338821 0.031227 0.088821 0.000000 0.000000 1.000000 255 255 255
0.088821 0.031227 -0.088821 0.000000 0.000000 -1.000000 255 255 255
0.338821 0.031227 -0.088821 0.000000 0.000000 -1.000000 255 255 255
0.338821 -0.031227 -0.088821 0.000000 0.000000 -1.000000 255 255 255
-0.338821 0.031227 -0.088821 -1.000000 0.000000 0.000000 255 255 255
-0.338821 -0.031227 -0.088821 -1.000000 0.000000 0.000000 255 255 255
-0.338821 -0.031227 0.088821 -1.000000 0.000000 0.000000 255 255 255
-0.088821 0.031227 -0.088821 -0.000000 1.000000 0.000000 255 255 255
-0.338821 0.031227 -0.088821 -0.000000 1.000000 0.000000 255 255 255
-0.338821 0.031227 0.088821 -0.000000 1.000000 0.000000 255 255 255
-0.088821 0.031227 0.088821 0.000000 0.000000 1.000000 255 255 255
-0.338821 0.031227 0.088821 0.000000 0.000000 1.000000 255 255 255
-0.338821 -0.031227 0.088821 0.000000 0.000000 1.000000 255 255 255
-0.338821 0.031227 -0.088821 0.000000 0.000000 -1.000000 255 255 255
-0.211321 -0.041227 0.088821 0.000000 -1.000000 0.000000 255 255 255
-0.336321 -0.041227 0.088821 0.000000 -1.000000 0.000000 255 255 255
-0.336321 -0.041227 -0.088821 0.000000 -1.000000 0.000000 255 255 255
-0.338821 -0.031227 -0.088821 -0.970143 -0.242535 -0.000000 255 255 255
-0.336321 -0.041227 -0.088821 -0.970143 -0.242535 -0.000000 255 255 255
-0.336321 -0.041227 0.088821 -0.970143 -0.242535 -0.000000 255 255 255
-0.088821 -0.031227 0.088821 0.081362 -0.996685 0.000000 255 255 255
-0.211321 -0.041227 0.088821 0.081362 -0.996685 0.000000 255 255 255
-0.211321 -0.041227 -0.088821 0.081362 -0.996685 0.000000 255 255 255
-0.336321 -0.041227 0.088821 0.000000 0.000000 1.000000 255 255 255
-0.211321 -0.041227 0.088821 0.000000 0.000000 1.000000 255 255 255
0.211321 -0.041227 -0.088821 -0.000000 -1.000000 -0.000000 255 255 255
0.336321 -0.041227 -0.088821 -0.000000 -1.000000 -0.000000 255 255 255
0.336321 -0.041227 0.088821 -0.000000 -1.000000 -0.000000 255 255 255
0.338821 -0.031227 0.088821 0.970143 -0.242535 0.000000 255 255 255
0.336321 -0.041227 0.088821 0.970143 -0.242535 0.000000 255 255 255
0.336321 -0.041227 -0.088821 0.970143 -0.242535 0.000000 255 255 255
0.088821 -0.031227 -0.088821 -0.081362 -0.996685 -0.000000 255 255 255
0.211321 -0.041227 -0.088821 -0.081362 -0.996685 -0.000000 255 255 255
0.211321 -0.041227 0.088821 -0.081362 -0.996685 -0.000000 255 255 255
0.336321 -0.041227 -0.088821 0.000000 0.000000 -1.000000 255 255 255
0.211321 -0.041227 -0.088821 0.000000 0.000000 -1.000000 255 255 255
-0.088821 -0.041227 -0.211321 0.000000 -1.000000 0.000000 255 255 255
-0.088821 -0.041227 -0.336321 0.000000 -1.000000 0.000000 255 255 255
0.088821 -0.041227 -0.336321 0.000000 -1.000000 0.000000 255 255 255
0.088821 -0.031227 -0.338821 0.000000 -0.242535 -0.970143 255 255 255
0.088821 -0.041227 -0.336321 0.000000 -0.242535 -0.970143 255 255 255
-0.088821 -0.041227 -0.336321 0.000000 -0.242535 -0.970143 255 255 255
-0.088821 -0.031227 -0.088821 0.000000 -0.996685 0.081362 255 255 255
-0.088821 -0.041227 -0.211321 0.000000 -0.996685 0.081362 255 255 255
0.088821 -0.041227 -0.211321 0.000000 -0.996685 0.081362 255 255 255
-0.088821 -0.041227 -0.336321 -1.000000 0.000000 0.000000 255 255 255
-0.088821 -0.041227 -0.211321 -1.000000 0.000000 0.000000 255 255 255
0.088821 -0.041227 0.211321 0.000000 -1.000000 0.000000 255 255 255
0.088821 -0.041227 0.336321 0.000000 -1.000000 0.000000 255 255 255
-0.088821 -0.041227 0.336321 0.000000 -1.000000 0.000000 255 255 255
0.088821 -0.041227 0.336321 1.000000 0.000000 0.000000 255 255 255
0.088821 -0.041227 0.211321 1.000000 0.000000 0.000000 255 255 255
-0.088821 -0.041227 0.211321 -1.000000 0.000000 0.000000 255 255 255
-0.088821 -0.031227 0.338821 0.000000 -0.242535 0.970143 255 255 255
-0.088821 -0.041227 0.336321 0.000000 -0.242535 0.970143 255 255 255
0.088821 -0.041227 0.336321 0.000000 -0.242535 0.970143 255 255 255
0.336321 -0.041227 0.088821 -0.000000 0.000000 1.000000 255 255 255
-0.088821 0.031227 0.088821 -1.000000 0.000000 -0.000000 255 255 255
-0.336321 -0.041227 -0.088821 -0.000000 -0.000000 -1.000000 255 255 255
0.088821 -0.031227 -0.088821 0.000000 -1.000000 0.000000 255 255 255
-0.088821 0.031227 -0.338821 0.000000 0.000000 -1.000000 255 255 255
-0.088821 -0.031227 -0.088821 -1.000000 0.000000 0.000000 255 255 255
0.088821 0.031227 -0.088821 1.000000 0.000000 -0.000000 255 255 255
0.088821 -0.041227 -0.336321 1.000000 0.000000 0.000000 255 255 255
0.088821 0.031227 0.338821 0.000000 -0.000000 1.000000 255 255 255
-0.088821 -0.031227 0.088821 -0.000000 -0.996685 -0.081362 255 255 255
0.088821 -0.031227 0.088821 1.000000 0.000000 0.000000 255 255 255
0.338821 0.031227 -0.088821 1.000000 -0.000000 0.000000 255 255 255
0.088821 0.031227 0.088821 0.000000 -0.000000 1.000000 255 255 255
0.088821 -0.031227 -0.088821 -0.000000 -0.000000 -1.000000 255 255 255
-0.338821 0.031227 0.088821 -1.000000 0.000000 0.000000 255 255 255
-0.088821 -0.031227 0.088821 -0.000000 0.000000 1.000000 255 255 255
-0.088821 0.031227 -0.088821 0.000000 0.000000 -1.000000 255 255 255
-0.211321 -0.041227 -0.088821 0.000000 -1.000000 0.000000 255 255 255
-0.338821 -0.031227 0.088821 -0.970143 -0.242535 0.000000 255 255 255
-0.088821 -0.031227 -0.088821 0.081362 -0.996685 0.000000 255 255 255
0.211321 -0.041227 0.088821 -0.000000 -1.000000 0.000000 255 255 255
0.338821 -0.031227 -0.088821 0.970143 -0.242535 0.000000 255 255 255
0.088821 -0.031227 0.088821 -0.081362 -0.996685 0.000000 255 255 255
0.088821 -0.041227 -0.211321 0.000000 -1.000000 0.000000 255 255 255
-0.088821 -0.031227 -0.338821 -0.000000 -0.242535 -0.970143 255 255 255
0.088821 -0.031227 -0.088821 0.000000 -0.996685 0.081362 255 255 255
-0.088821 -0.041227 0.211321 -0.000000 -1.000000 -0.000000 255 255 255
-0.088821 -0.041227 0.336321 -1.000000 -0.000000 0.000000 255 255 255
0.088821 -0.031227 0.338821 0.000000 -0.242535 0.970143 255 255 255
3 0 1 2
3 3 4 5
3 6 7 8
3 9 10 11
3 12 13 14
3 15 16 9
3 17 18 19
3 20 21 22
3 23 24 25
3 24 23 26
3 27 28 29
3 30 31 32
3 15 33 34
3 35 36 37
3 38 39 40
3 16 41 42
3 1 0 43
3 44 45 46
3 47 48 49
3 50 51 52
3 53 54 55
3 7 6 56
3 57 58 59
3 60 61 62
3 63 64 65
3 55 66 67
3 68 69 70
3 71 72 73
3 74 75 76
3 46 77 78
3 79 80 81
3 82 83 84
3 85 86 87
3 22 88 89
3 90 91 92
3 37 93 94
3 4 3 95
3 96 97 98
3 99 0 2
3 100 3 5
3 101 6 8
3 50 9 11
3 102 12 14
3 50 15 9
3 103 17 19
3 104 20 22
3 105 23 25
3 106 24 26
3 107 27 29
3 108 30 32
3 16 15 34
3 109 35 37
3 110 38 40
3 9 16 42
3 111 1 43
3 112 44 46
3 113 47 49
3 15 50 52
3 114 53 55
3 115 7 56
3 116 57 59
3 117 60 62
3 118 63 65
3 114 55 67
3 119 68 70
3 120 71 73
3 121 74 76
3 112 46 78
3 122 79 81
3 123 82 84
3 124 85 87
3 104 22 89
3 125 90 92
3 109 37 94
3 126 4 95
3 127 96 98
