ply
format ascii 1.0
comment Created by Blender 2.75 (sub 0) - www.blender.org, source file: 'node.blend'
element vertex 156
property float x
property float y
property float z
property float nx
property float ny
property float nz
property uchar red
property uchar green
property uchar blue
element face 70
property list uchar uint vertex_indices
end_header
0.282449 0.756025 0.282449 0.317740 -0.557325 0.767092 255 255 255
-0.000000 0.756025 0.399444 0.317740 -0.557325 0.767092 255 255 255
-0.000000 0.546025 0.246870 0.317740 -0.557325 0.767092 255 255 255
0.174563 1.225599 0.174563 0.317740 0.557325 0.767092 255 255 255
-0.000000 1.225599 0.246870 0.317740 0.557325 0.767092 255 255 255
-0.000000 1.015599 0.399444 0.317740 0.557325 0.767092 255 255 255
0.282449 1.015599 0.282449 0.382683 -0.000000 0.923880 255 255 255
-0.000000 1.015599 0.399444 0.382683 -0.000000 0.923880 255 255 255
-0.000000 0.756025 0.399444 0.382683 -0.000000 0.923880 255 255 255
-0.000000 0.756025 0.399444 -0.317740 -0.557325 0.767092 255 255 255
-0.282450 0.756025 0.282449 -0.317740 -0.557325 0.767092 255 255 255
-0.174563 0.546025 0.174563 -0.317740 -0.557325 0.767092 255 255 255
-0.000000 1.225599 0.246870 -0.317740 0.557325 0.767092 255 255 255
-0.174563 1.225599 0.174563 -0.317740 0.557325 0.767092 255 255 255
-0.282450 1.015599 0.282449 -0.317740 0.557325 0.767092 255 255 255
-0.000000 0.756025 -0.399444 0.923879 0.000000 0.382683 255 255 255
-0.000000 1.015599 -0.399444 0.923879 0.000000 0.382683 255 255 255
-0.282450 1.015599 0.282449 0.923879 0.000000 0.382683 255 255 255
-0.282450 0.756025 0.282449 -0.767092 -0.557325 0.317740 255 255 255
-0.399444 0.756025 0.000000 -0.767092 -0.557325 0.317740 255 255 255
-0.246870 0.546025 -0.000000 -0.767092 -0.557325 0.317740 255 255 255
-0.174563 1.225599 0.174563 -0.767092 0.557325 0.317740 255 255 255
-0.246870 1.225599 -0.000000 -0.767092 0.557325 0.317740 255 255 255
-0.399444 1.015599 0.000000 -0.767092 0.557325 0.317740 255 255 255
-0.282450 1.015599 0.282449 -0.923880 0.000000 0.382683 255 255 255
-0.399444 1.015599 0.000000 -0.923880 0.000000 0.382683 255 255 255
-0.399444 0.756025 0.000000 -0.923880 0.000000 0.382683 255 255 255
-0.399444 0.756025 0.000000 -0.767092 -0.557325 -0.317740 255 255 255
-0.282450 0.756025 -0.282449 -0.767092 -0.557325 -0.317740 255 255 255
-0.174563 0.546025 -0.174563 -0.767092 -0.557325 -0.317740 255 255 255
-0.399444 1.015599 0.000000 -0.767092 0.557325 -0.317740 255 255 255
-0.246870 1.225599 -0.000000 -0.767092 0.557325 -0.317740 255 255 255
-0.174563 1.225599 -0.174563 -0.767092 0.557325 -0.317740 255 255 255
-0.399444 1.015599 0.000000 -0.923880 0.000000 -0.382683 255 255 255
-0.282450 1.015599 -0.282449 -0.923880 0.000000 -0.382683 255 255 255
-0.282450 0.756025 -0.282449 -0.923880 0.000000 -0.382683 255 255 255
-0.282450 0.756025 -0.282449 -0.317740 -0.557325 -0.767092 255 255 255
-0.000000 0.756025 -0.399444 -0.317740 -0.557325 -0.767092 255 255 255
-0.000000 0.546025 -0.246870 -0.317740 -0.557325 -0.767092 255 255 255
-0.174563 1.225599 -0.174563 -0.317740 0.557325 -0.767092 255 255 255
-0.000000 1.225599 -0.246870 -0.317740 0.557325 -0.767092 255 255 255
-0.000000 1.015599 -0.399444 -0.317740 0.557325 -0.767092 255 255 255
-0.282450 1.015599 -0.282449 -0.382683 0.000000 -0.923880 255 255 255
-0.000000 1.015599 -0.399444 -0.382683 0.000000 -0.923880 255 255 255
-0.000000 0.756025 -0.399444 -0.382683 0.000000 -0.923880 255 255 255
-0.000000 0.756025 -0.399444 0.317740 -0.557325 -0.767092 255 255 255
0.282449 0.756025 -0.282449 0.317740 -0.557325 -0.767092 255 255 255
0.174563 0.546025 -0.174563 0.317740 -0.557325 -0.767092 255 255 255
-0.000000 1.225599 -0.246870 0.317740 0.557325 -0.767092 255 255 255
0.174563 1.225599 -0.174563 0.317740 0.557325 -0.767092 255 255 255
0.282449 1.015599 -0.282449 0.317740 0.557325 -0.767092 255 255 255
0.282449 0.756025 -0.282449 -0.000000 1.000000 0.000000 255 255 255
-0.000000 0.756025 -0.399444 -0.000000 1.000000 0.000000 255 255 255
-0.282450 0.756025 0.282449 -0.000000 1.000000 0.000000 255 255 255
0.282449 1.015599 -0.282449 0.923880 0.000000 -0.382683 255 255 255
0.399444 1.015599 -0.000000 0.923880 0.000000 -0.382683 255 255 255
0.399444 0.756025 -0.000000 0.923880 0.000000 -0.382683 255 255 255
0.399444 1.015599 -0.000000 0.767092 0.557325 0.317740 255 255 255
0.246870 1.225599 0.000000 0.767092 0.557325 0.317740 255 255 255
0.174563 1.225599 0.174563 0.767092 0.557325 0.317740 255 255 255
-0.000000 0.465812 0.000000 0.306516 -0.943360 0.126963 255 255 255
0.246870 0.546025 0.000000 0.306516 -0.943360 0.126963 255 255 255
0.174563 0.546025 0.174563 0.306516 -0.943360 0.126963 255 255 255
0.399444 1.015599 -0.000000 0.923880 -0.000000 0.382683 255 255 255
0.282449 1.015599 0.282449 0.923880 -0.000000 0.382683 255 255 255
0.282449 0.756025 0.282449 0.923880 -0.000000 0.382683 255 255 255
0.246870 1.225599 0.000000 0.306516 0.943360 0.126963 255 255 255
-0.000000 1.305812 -0.000000 0.306516 0.943360 0.126963 255 255 255
0.174563 1.225599 0.174563 0.306516 0.943360 0.126963 255 255 255
0.399444 0.756025 -0.000000 0.767092 -0.557325 0.317740 255 255 255
0.282449 0.756025 0.282449 0.767092 -0.557325 0.317740 255 255 255
0.174563 0.546025 0.174563 0.767092 -0.557325 0.317740 255 255 255
-0.000000 0.465812 0.000000 0.126963 -0.943360 0.306516 255 255 255
0.174563 0.546025 0.174563 0.126963 -0.943360 0.306516 255 255 255
-0.000000 0.546025 0.246870 0.126963 -0.943360 0.306516 255 255 255
0.174563 1.225599 0.174563 0.126963 0.943360 0.306516 255 255 255
-0.000000 1.305812 -0.000000 0.126963 0.943360 0.306516 255 255 255
-0.000000 1.225599 0.246870 0.126963 0.943360 0.306516 255 255 255
-0.000000 0.465812 0.000000 -0.126963 -0.943360 0.306516 255 255 255
-0.000000 0.546025 0.246870 -0.126963 -0.943360 0.306516 255 255 255
-0.174563 0.546025 0.174563 -0.126963 -0.943360 0.306516 255 255 255
-0.000000 1.225599 0.246870 -0.126963 0.943360 0.306516 255 255 255
-0.000000 1.305812 -0.000000 -0.126963 0.943360 0.306516 255 255 255
-0.174563 1.225599 0.174563 -0.126963 0.943360 0.306516 255 255 255
-0.000000 0.465812 0.000000 -0.306516 -0.943360 0.126963 255 255 255
-0.174563 0.546025 0.174563 -0.306516 -0.943360 0.126963 255 255 255
-0.246870 0.546025 -0.000000 -0.306516 -0.943360 0.126963 255 255 255
-0.174563 1.225599 0.174563 -0.306516 0.943360 0.126963 255 255 255
-0.000000 1.305812 -0.000000 -0.306516 0.943360 0.126963 255 255 255
-0.246870 1.225599 -0.000000 -0.306516 0.943360 0.126963 255 255 255
-0.000000 0.465812 0.000000 -0.306516 -0.943360 -0.126963 255 255 255
-0.246870 0.546025 -0.000000 -0.306516 -0.943360 -0.126963 255 255 255
-0.174563 0.546025 -0.174563 -0.306516 -0.943360 -0.126963 255 255 255
-0.246870 1.225599 -0.000000 -0.306516 0.943360 -0.126963 255 255 255
-0.000000 1.305812 -0.000000 -0.306516 0.943360 -0.126963 255 255 255
-0.174563 1.225599 -0.174563 -0.306516 0.943360 -0.126963 255 255 255
-0.000000 0.465812 0.000000 -0.126963 -0.943360 -0.306516 255 255 255
-0.174563 0.546025 -0.174563 -0.126963 -0.943360 -0.306516 255 255 255
-0.000000 0.546025 -0.246870 -0.126963 -0.943360 -0.306516 255 255 255
-0.174563 1.225599 -0.174563 -0.126963 0.943360 -0.306516 255 255 255
-0.000000 1.305812 -0.000000 -0.126963 0.943360 -0.306516 255 255 255
-0.000000 1.225599 -0.246870 -0.126963 0.943360 -0.306516 255 255 255
-0.000000 0.465812 0.000000 0.126963 -0.943360 -0.306516 255 255 255
-0.000000 0.546025 -0.246870 0.126963 -0.943360 -0.306516 255 255 255
0.174563 0.546025 -0.174563 0.126963 -0.943360 -0.306516 255 255 255
-0.000000 1.225599 -0.246870 0.126963 0.943360 -0.306516 255 255 255
-0.000000 1.305812 -0.000000 0.126963 0.943360 -0.306516 255 255 255
0.174563 1.225599 -0.174563 0.126963 0.943360 -0.306516 255 255 255
0.282449 0.756025 -0.282449 0.767092 -0.557325 -0.317740 255 255 255
0.399444 0.756025 -0.000000 0.767092 -0.557325 -0.317740 255 255 255
0.246870 0.546025 0.000000 0.767092 -0.557325 -0.317740 255 255 255
0.282449 1.015599 -0.282449 0.767092 0.557325 -0.317740 255 255 255
0.174563 1.225599 -0.174563 0.767092 0.557325 -0.317740 255 255 255
0.246870 1.225599 0.000000 0.767092 0.557325 -0.317740 255 255 255
-0.000000 0.465812 0.000000 0.306516 -0.943360 -0.126963 255 255 255
0.174563 0.546025 -0.174563 0.306516 -0.943360 -0.126963 255 255 255
0.246870 0.546025 0.000000 0.306516 -0.943360 -0.126963 255 255 255
0.174563 1.225599 -0.174563 0.306516 0.943360 -0.126963 255 255 255
-0.000000 1.305812 -0.000000 0.306516 0.943360 -0.126963 255 255 255
0.246870 1.225599 0.000000 0.306516 0.943360 -0.126963 255 255 255
-0.000000 1.015599 -0.399444 0.000000 -1.000000 -0.000000 255 255 255
0.282449 1.015599 -0.282449 0.000000 -1.000000 -0.000000 255 255 255
-0.000000 1.015599 0.399444 0.000000 -1.000000 -0.000000 255 255 255
0.282449 1.015599 -0.282449 -0.923879 0.000000 -0.382683 255 255 255
0.282449 0.756025 -0.282449 -0.923879 0.000000 -0.382683 255 255 255
-0.000000 0.756025 0.399444 -0.923879 0.000000 -0.382683 255 255 255
0.174563 0.546025 0.174563 0.317740 -0.557325 0.767092 255 255 255
0.282449 1.015599 0.282449 0.317740 0.557325 0.767092 255 255 255
0.282449 0.756025 0.282449 0.382683 0.000000 0.923880 255 255 255
-0.000000 0.546025 0.246870 -0.317740 -0.557325 0.767092 255 255 255
-0.000000 1.015599 0.399444 -0.317740 0.557325 0.767092 255 255 255
-0.282450 0.756025 0.282449 0.923879 0.000000 0.382683 255 255 255
-0.174563 0.546025 0.174563 -0.767092 -0.557325 0.317740 255 255 255
-0.282450 1.015599 0.282449 -0.767092 0.557325 0.317740 255 255 255
-0.282450 0.756025 0.282449 -0.923880 0.000000 0.382683 255 255 255
-0.246870 0.546025 -0.000000 -0.767092 -0.557325 -0.317740 255 255 255
-0.282450 1.015599 -0.282449 -0.767092 0.557325 -0.317740 255 255 255
-0.399444 0.756025 0.000000 -0.923880 -0.000000 -0.382683 255 255 255
-0.174563 0.546025 -0.174563 -0.317740 -0.557325 -0.767092 255 255 255
-0.282450 1.015599 -0.282449 -0.317740 0.557325 -0.767092 255 255 255
-0.282450 0.756025 -0.282449 -0.382683 -0.000000 -0.923880 255 255 255
-0.000000 0.546025 -0.246870 0.317740 -0.557325 -0.767092 255 255 255
-0.000000 1.015599 -0.399444 0.317740 0.557325 -0.767092 255 255 255
-0.000000 0.756025 0.399444 -0.000000 1.000000 -0.000000 255 255 255
0.282449 0.756025 -0.282449 0.923880 0.000000 -0.382683 255 255 255
0.282449 1.015599 0.282449 0.767092 0.557325 0.317740 255 255 255
0.399444 0.756025 -0.000000 0.923880 0.000000 0.382683 255 255 255
0.246870 0.546025 0.000000 0.767092 -0.557325 0.317740 255 255 255
0.174563 0.546025 -0.174563 0.767092 -0.557325 -0.317740 255 255 255
0.399444 1.015599 -0.000000 0.767092 0.557325 -0.317740 255 255 255
-0.282450 1.015599 0.282449 -0.000000 -1.000000 -0.000000 255 255 255
-0.000000 1.015599 0.399444 -0.923879 0.000000 -0.382683 255 255 255
-0.282450 1.015599 0.282449 -0.382683 0.000000 0.923880 255 255 255
-0.000000 0.756025 0.399444 -0.382683 0.000000 0.923880 255 255 255
-0.000000 1.015599 0.399444 -0.382683 0.000000 0.923880 255 255 255
-0.282450 0.756025 0.282449 -0.382683 0.000000 0.923880 255 255 255
3 0 1 2
3 3 4 5
3 6 7 8
3 9 10 11
3 12 13 14
3 15 16 17
3 18 19 20
3 21 22 23
3 24 25 26
3 27 28 29
3 30 31 32
3 33 34 35
3 36 37 38
3 39 40 41
3 42 43 44
3 45 46 47
3 48 49 50
3 51 52 53
3 54 55 56
3 57 58 59
3 60 61 62
3 63 64 65
3 66 67 68
3 69 70 71
3 72 73 74
3 75 76 77
3 78 79 80
3 81 82 83
3 84 85 86
3 87 88 89
3 90 91 92
3 93 94 95
3 96 97 98
3 99 100 101
3 102 103 104
3 105 106 107
3 108 109 110
3 111 112 113
3 114 115 116
3 117 118 119
3 120 121 122
3 123 124 125
3 126 0 2
3 127 3 5
3 128 6 8
3 129 9 11
3 130 12 14
3 131 15 17
3 132 18 20
3 133 21 23
3 134 24 26
3 135 27 29
3 136 30 32
3 137 33 35
3 138 36 38
3 139 39 41
3 140 42 44
3 141 45 47
3 142 48 50
3 143 51 53
3 144 54 56
3 145 57 59
3 146 63 65
3 147 69 71
3 148 108 110
3 149 111 113
3 150 120 122
3 151 123 125
3 152 153 154
3 155 153 152
