ply
format ascii 1.0
comment Created by Blender 2.75 (sub 0) - www.blender.org, source file: ''
element vertex 604
property float x
property float y
property float z
property float s
property float t
element face 960
property list uchar uint vertex_indices
end_header
461.939789 -191.341644 0.000000 3.338301 5.373389
453.063721 -191.341644 90.120010 3.138045 5.230278
480.969910 -97.545105 95.670898 3.262131 4.904739
272.447540 415.734802 54.193222 5.661849 3.910419
187.665131 461.939758 37.328949 5.432309 3.892292
191.341721 461.939758 0.000000 5.412784 3.756106
407.746582 -277.785095 81.105873 3.007441 5.528068
346.759949 353.553375 68.974876 5.863044 3.949532
277.785126 415.734802 0.000000 5.633503 3.712707
346.759949 -353.553375 68.974876 2.875336 5.786662
415.734833 -277.785095 0.000000 3.187666 5.656863
407.746582 277.785095 81.105873 3.605392 3.581046
346.759949 353.553375 68.974876 3.636384 3.308573
353.553375 353.553375 0.000000 3.789653 3.418105
272.447510 -415.734833 54.193214 4.284078 1.841361
346.759949 -353.553375 68.974876 4.082884 1.747263
353.553375 -353.553375 0.000000 4.118963 1.495623
453.063690 191.341721 90.120010 3.549922 3.889147
415.734833 277.785095 0.000000 3.785618 3.709842
187.665070 -461.939819 37.328934 4.513619 1.922219
277.785095 -415.734833 0.000000 4.312425 1.643648
480.969879 97.545174 95.670891 3.472104 4.221037
461.939758 191.341721 0.000000 3.750177 4.032257
95.670738 -490.392670 19.030127 4.762685 1.986730
191.341644 -461.939819 0.000000 4.533144 1.786032
500.000000 0.000038 0.000000 3.591684 4.718862
490.392639 0.000038 97.545189 3.374928 4.563960
95.670853 490.392639 19.030149 5.183243 3.895849
97.545158 490.392639 0.000000 5.173289 3.826422
453.063721 -97.545105 187.665207 3.034218 4.750711
461.939758 0.000038 191.341766 3.142550 4.406915
176.776672 461.939758 73.223366 5.432309 4.031147
90.119957 490.392639 37.328979 5.183243 3.966637
426.776672 -191.341644 176.776764 2.923356 5.085187
256.639954 415.734802 106.303818 5.661849 4.112005
384.088867 -277.785095 159.094879 2.814226 5.397489
326.640717 353.553375 135.299088 5.863044 4.206102
326.640717 -353.553375 135.299088 2.711020 5.675613
384.088867 277.785095 159.094879 3.412177 3.450467
326.640717 353.553375 135.299088 3.472068 3.197525
256.639923 -415.734833 106.303810 4.284078 2.042947
326.640717 -353.553375 135.299088 4.082884 2.003834
426.776642 191.341721 176.776749 3.335232 3.744055
176.776611 -461.939819 73.223343 4.513619 2.061074
453.063690 97.545174 187.665192 3.244191 4.067008
90.119858 -490.392670 37.328934 4.762685 2.057517
345.670837 277.785095 230.969971 3.213398 3.323123
293.968872 353.553375 196.423828 3.303020 3.089228
230.969803 -415.734833 154.329208 2.484885 5.823786
293.968872 -353.553375 196.423828 2.541972 5.567317
384.088806 191.341721 256.640045 3.114360 3.602559
159.094727 -461.939819 106.303818 4.533144 2.197261
230.969803 -415.734833 154.329208 4.312425 2.240659
407.746521 97.545174 272.447632 3.009714 3.916797
81.105713 -490.392670 54.193211 4.772639 2.126945
415.734772 0.000038 277.785187 2.903480 4.253760
407.746552 -97.545105 272.447662 2.799742 4.600500
159.094788 461.939758 106.303848 5.412784 4.167334
81.105797 490.392639 54.193275 5.173289 4.036064
384.088837 -191.341644 256.640076 2.702484 4.943691
230.969833 415.734802 154.329224 5.633503 4.309718
345.670837 -277.785095 230.969971 2.615446 5.270145
293.968872 353.553375 196.423828 5.826965 4.457743
346.759888 -97.545105 346.760101 2.567712 4.459876
353.553314 0.000038 353.553467 2.666905 4.110382
135.298981 461.939758 135.299133 5.374483 4.295619
68.974785 490.392639 68.974953 5.153764 4.101464
326.640686 -191.341644 326.640839 2.483917 4.811227
196.423660 415.734802 196.423843 5.577899 4.495959
293.968872 -277.785095 293.968994 2.418741 5.150930
249.999954 353.553375 250.000107 5.756196 4.694783
249.999954 -353.553375 250.000107 2.374688 5.465933
293.968872 277.785095 293.968994 3.016693 3.203908
249.999954 353.553375 250.000107 3.135736 2.987844
196.423630 -415.734833 196.423828 2.353451 5.744129
326.640656 191.341721 326.640808 2.895793 3.470095
135.298920 -461.939819 135.299088 4.571445 2.325546
196.423630 -415.734833 196.423828 4.368029 2.426900
346.759888 97.545174 346.760040 2.777685 3.776173
68.974716 -490.392670 68.974869 4.792164 2.192344
154.329010 -415.734833 230.969971 2.228454 5.672965
196.423676 -353.553375 293.969025 2.215597 5.375359
256.639893 191.341721 384.088959 2.687931 3.351754
230.969833 277.785095 345.670990 2.829621 3.097404
106.303650 -461.939819 159.094894 4.627048 2.441000
154.329010 -415.734833 230.969971 4.448752 2.594513
272.447449 97.545174 407.746674 2.557019 3.650543
54.193050 -490.392670 81.105865 4.820511 2.251202
277.785034 0.000038 415.734894 2.441916 3.982290
272.447449 -97.545105 407.746735 2.347046 4.334246
106.303696 461.939758 159.094955 5.318880 4.411073
54.193104 490.392639 81.105965 5.125417 4.160321
256.639923 -191.341644 384.088959 2.276055 4.692885
154.329041 415.734802 230.970001 5.497175 4.663571
230.969833 -277.785095 345.670990 2.231669 5.044426
196.423676 353.553375 293.969025 5.653453 4.908113
230.969833 277.785095 345.670990 5.781706 5.135301
176.776611 -191.341644 426.776764 2.086885 4.593215
187.664993 -97.545105 453.063873 2.146224 4.228436
106.303635 415.734802 256.640106 5.394433 4.806114
73.223206 461.939758 176.776825 5.248109 4.509258
159.094727 -277.785095 384.089020 2.061421 4.954725
135.298935 353.553375 326.640900 5.522686 5.089536
135.298935 -353.553375 326.640900 2.070812 5.299073
159.094727 277.785095 384.089020 5.627942 5.348631
106.303612 -415.734833 256.640076 4.551495 2.737056
135.298935 -353.553375 326.640900 4.423241 2.887267
176.776581 191.341721 426.776764 2.498761 3.252083
159.094727 277.785095 384.089020 2.659373 3.007703
73.223183 -461.939819 176.776779 4.697819 2.539185
187.665009 97.545174 453.063812 2.356197 3.544733
37.328770 -490.392670 90.120010 4.856589 2.301256
191.341614 0.000038 461.939850 2.237160 3.874407
37.328808 490.392639 90.120110 5.089338 4.210376
37.328773 -461.939819 187.665222 4.781035 2.616328
54.193016 -415.734833 272.447632 4.672307 2.849051
95.670700 97.545174 480.969971 2.182937 3.462810
90.119850 191.341721 453.063782 2.335553 3.174913
19.029963 -490.392670 95.670883 4.899013 2.340584
97.545044 0.000038 490.392700 2.060505 3.790879
95.670677 -97.545105 480.970032 1.972964 4.146513
37.328785 461.939758 187.665268 5.164892 4.586402
19.029980 490.392639 95.670990 5.046915 4.249703
90.119881 -191.341644 453.063782 0.242286 1.116173
95.670677 -97.545105 480.970032 0.177379 1.480969
187.664993 -97.545105 453.063873 0.000000 1.384678
54.193035 415.734802 272.447662 5.273620 4.918109
159.094727 -277.785095 384.089020 0.186302 0.683587
81.105713 -277.785095 407.746704 0.336677 0.765219
68.974724 353.553375 346.760101 5.368922 5.232079
68.974724 -353.553375 346.760101 0.456922 0.441594
81.105713 277.785095 407.746704 5.447133 5.516244
106.303612 -415.734833 256.640076 0.497926 0.103190
54.193016 -415.734833 272.447632 0.598403 0.157735
90.119850 191.341721 453.063782 5.505250 5.759685
-0.000175 415.734802 277.785217 5.139380 4.995254
-0.000160 461.939758 191.341843 5.072427 4.639540
-0.000156 -277.785095 415.734924 0.514692 0.835053
-0.000110 -191.341644 461.939819 0.440086 1.193769
-0.000156 353.553375 353.553528 5.198067 5.330264
-0.000156 -353.553375 353.553528 0.608312 0.500983
-0.000156 277.785095 415.734924 5.246230 5.631698
-0.000190 -415.734833 277.785187 0.717349 0.204397
-0.000140 191.341721 461.939819 5.282018 5.887969
-0.000160 -461.939819 191.341797 4.873501 2.669466
-0.000190 -415.734833 277.785187 4.806547 2.926195
95.670700 97.545174 480.969971 0.144761 2.196019
-0.000179 97.545174 490.392700 0.354744 2.278394
-0.000140 191.341721 461.939819 0.376104 2.596390
-0.000160 -490.392670 97.545181 4.946152 2.367673
-0.000133 0.000038 500.000061 0.358545 1.929578
-0.000209 -97.545105 490.392761 0.387362 1.563344
-0.000163 490.392639 97.545288 4.999776 4.276793
-95.671043 97.545174 480.969940 0.589261 2.343688
-90.120125 191.341721 453.063751 0.597014 2.657895
-19.030281 -490.392670 95.670876 4.996193 2.381483
-37.329094 -461.939819 187.665207 4.971663 2.696555
-97.545303 0.000038 490.392700 0.597657 1.996150
-95.671089 -97.545105 480.970001 0.621879 1.628638
-37.329102 461.939758 187.665253 4.974265 4.666629
-19.030306 490.392639 95.670982 4.949734 4.290603
-90.120094 -191.341644 453.063751 0.660996 1.255274
-54.193382 415.734802 272.447632 4.996873 5.034581
-81.106010 -277.785095 407.746674 0.713506 0.890406
-68.975021 353.553375 346.760071 5.016689 5.380319
-68.975021 -353.553375 346.760071 0.777389 0.548057
-81.106010 277.785095 407.746674 5.032951 5.690556
-54.193394 -415.734833 272.447601 0.850192 0.241382
-90.120125 191.341721 453.063751 5.045035 5.953369
-54.193394 -415.734833 272.447601 4.949054 2.965523
-159.095001 -277.785095 384.088959 0.925479 0.929151
-176.776810 -191.341644 426.776703 0.896528 1.298324
-135.299225 353.553375 326.640839 4.831758 5.380319
-106.303970 415.734802 256.640045 4.851573 5.034581
-135.299225 -353.553375 326.640839 0.957658 0.581007
-159.095001 277.785095 384.088959 4.815495 5.690556
-106.303970 -415.734833 256.640015 0.991828 0.267271
-176.776840 191.341721 426.776703 4.803411 5.953369
-73.223495 -461.939819 176.776749 5.071746 2.696555
-106.303970 -415.734833 256.640015 5.094354 2.965523
-187.665329 97.545174 453.063751 0.839301 2.389390
-176.776840 191.341721 426.776703 0.832546 2.700945
-37.329082 -490.392670 90.119987 5.047216 2.381483
-191.341858 0.000038 461.939819 0.852595 2.042748
-187.665390 -97.545105 453.063812 0.871919 1.674340
-73.223511 461.939758 176.776794 4.874181 4.666629
-37.329128 490.392639 90.120087 4.898711 4.290603
-54.193356 -490.392670 81.105843 5.097258 2.367673
-106.303955 -461.939819 159.094849 5.169908 2.669466
-277.785248 0.000038 415.734833 1.113562 2.067580
-272.447754 97.545174 407.746582 1.095253 2.413745
-272.447815 -97.545105 407.746643 1.127871 1.698695
-106.303978 461.939758 159.094894 4.776020 4.639540
-54.193417 490.392639 81.105927 4.848669 4.276793
-256.640076 -191.341644 384.088867 1.137630 1.321266
-154.329361 415.734802 230.969925 4.709065 4.995254
-230.970062 -277.785095 345.670898 1.142465 0.949798
-196.423950 353.553375 293.968964 4.650379 5.330264
-196.423950 -353.553375 293.968964 1.142189 0.598566
-230.970062 277.785095 345.670898 4.602217 5.631697
-154.329346 -415.734833 230.969894 1.136814 0.281067
-256.640106 191.341721 384.088867 1.073648 2.723887
-230.970062 277.785095 345.670898 1.049577 2.986088
-159.095001 277.785095 384.088959 0.832591 2.965441
-106.303955 -461.939819 159.094849 1.126544 0.009503
-250.000214 353.553375 250.000061 4.479525 5.232080
-196.423965 415.734802 196.423752 4.574826 4.918110
-250.000214 -353.553375 250.000061 1.323892 0.600059
-293.969086 -277.785095 293.968933 1.356125 0.951554
-293.969086 277.785095 293.968933 4.401313 5.516244
-196.423950 -415.734833 196.423737 1.279577 0.282240
-326.640869 191.341721 326.640747 1.311055 2.725839
-293.969086 277.785095 293.968933 1.263238 2.987844
-135.299225 -461.939819 135.299042 5.262373 2.616329
-196.423950 -415.734833 196.423737 5.371102 2.849052
-154.329346 -415.734833 230.969894 5.236862 2.926195
-346.760132 97.545174 346.759949 1.347283 2.415817
-68.975006 -490.392670 68.974846 5.144397 2.340584
-353.553497 0.000038 353.553406 1.370529 2.069692
-346.760223 -97.545105 346.759979 1.379901 1.700767
-135.299255 461.939758 135.299088 4.683554 4.586402
-68.975082 490.392639 68.974915 4.801531 4.249703
-326.640808 -191.341644 326.640747 1.375037 1.323218
-415.734894 0.000038 277.785126 1.613621 2.049004
-407.746735 97.545174 272.447540 1.585704 2.395525
-407.746826 -97.545105 272.447540 1.618322 1.680475
-159.095047 461.939758 106.303810 4.600337 4.509259
-81.106079 490.392639 54.193241 4.759107 4.210376
-384.088959 -191.341644 256.640015 1.599625 1.304104
-230.970108 415.734802 154.329132 4.454013 4.806115
-345.671051 -277.785095 230.969910 1.558249 0.934352
-293.969116 353.553375 196.423767 4.325760 5.089536
-293.969116 -353.553375 196.423767 1.495785 0.585430
-345.671051 277.785095 230.969910 4.220505 5.348632
-230.970093 -415.734833 154.329132 1.414632 0.270746
-384.088989 191.341721 256.639984 4.142293 5.573443
-159.095016 -461.939819 106.303772 5.345591 2.539185
-230.970093 -415.734833 154.329132 5.491914 2.737057
-384.088989 191.341721 256.639984 1.535643 2.706725
-81.105988 -490.392670 54.193188 5.186821 2.301256
-326.640961 -353.553375 135.299042 1.651260 0.555240
-384.089081 -277.785095 159.094818 1.741069 0.898853
-384.089081 277.785095 159.094818 4.066740 5.135301
-326.640961 353.553375 135.299042 4.194993 4.908114
-256.640167 -415.734833 106.303741 1.536788 0.247026
-426.776794 191.341721 176.776703 3.971439 5.336404
-176.776886 -461.939819 73.223297 5.416361 2.441000
-256.640167 -415.734833 106.303741 5.594656 2.594514
-453.063873 97.545174 187.665115 1.801355 2.353651
-426.776794 191.341721 176.776703 1.738781 2.667280
-90.120117 -490.392670 37.328915 5.222898 2.251202
-461.939819 0.000038 191.341705 1.833497 2.006309
-453.063965 -97.545105 187.665100 1.833973 1.638601
-176.776917 461.939758 73.223335 4.529567 4.411073
-90.120224 490.392639 37.328949 4.723029 4.160321
-426.776764 -191.341644 176.776733 1.802763 1.264659
-256.640198 415.734802 106.303741 4.351271 4.663572
-480.970093 -97.545105 95.670792 2.018566 1.576753
-490.392670 0.000038 97.545158 2.021706 1.943249
-187.665344 461.939758 37.328934 4.473963 4.295620
-95.671104 490.392639 19.030132 4.694682 4.101464
-453.063782 -191.341644 90.120033 1.976646 1.206399
-272.447754 415.734802 54.193150 4.270546 4.495959
-407.746765 -277.785095 81.105827 1.897559 0.846420
-346.760162 353.553375 68.974854 4.092251 4.694783
-346.760162 -353.553375 68.974854 1.784344 0.510650
-407.746765 277.785095 81.105827 3.945927 4.884452
-272.447723 -415.734833 54.193157 1.641351 0.211992
-453.063812 191.341721 90.119995 1.543463 3.478826
-407.746765 277.785095 81.105827 1.375012 3.208918
-384.089081 277.785095 159.094818 1.509245 3.098278
-187.665314 -461.939819 37.328899 5.471965 2.325547
-272.447723 -415.734833 54.193157 5.675381 2.426902
-453.063873 97.545174 187.665115 1.849195 3.656688
-480.970032 97.545174 95.670830 1.690855 3.787196
-95.670990 -490.392670 19.030119 5.251245 2.192344
-490.392670 0.000038 97.545158 1.811522 4.122178
-277.785278 -415.734833 -0.000033 5.730985 2.240661
-353.553589 -353.553375 0.000001 5.924447 2.255476
-461.939850 191.341721 0.000024 1.365337 3.614456
-415.734985 277.785095 -0.000014 1.214702 3.330981
-191.341873 -461.939819 -0.000022 5.510265 2.197262
-490.392761 97.545174 -0.000022 1.501757 3.931180
-97.545288 -490.392670 0.000007 5.270771 2.126945
-500.000031 0.000038 0.000017 1.618719 4.268983
-480.970093 -97.545105 95.670792 1.900828 4.470900
-490.392822 -97.545105 -0.000075 1.711730 4.614883
-191.341919 461.939758 0.000005 4.435662 4.167335
-97.545403 490.392639 -0.000003 4.675157 4.036065
-461.939819 -191.341644 0.000070 1.777213 4.955587
-277.785309 415.734802 -0.000048 4.214942 4.309718
-407.746765 -277.785095 81.105827 1.972964 5.155940
-415.734985 -277.785095 -0.000014 1.812654 5.278003
-353.553589 353.553375 0.000001 4.021481 4.457744
-353.553589 -353.553375 0.000001 1.889922 0.453373
-415.734985 -277.785095 -0.000014 2.021706 0.779070
-353.553589 353.553375 0.000001 1.055641 3.091651
-346.760162 353.553375 68.974854 1.191973 2.987844
-187.665329 461.939758 -37.328922 4.416137 4.031148
-95.671089 490.392639 -19.030134 4.665203 3.966637
-453.063751 -191.341644 -90.119888 1.576957 5.098697
-480.970062 -97.545105 -95.670937 1.499139 4.766808
-272.447723 415.734802 -54.193241 4.186596 4.112006
-407.746735 -277.785095 -81.105858 1.632428 5.406799
-346.760132 353.553375 -68.974854 3.985402 4.206103
-346.760132 -353.553375 -68.974854 1.663420 5.679272
-407.746735 277.785095 -81.105858 1.034477 3.459777
-346.760132 353.553375 -68.974854 0.902372 3.201183
-272.447693 -415.734833 -54.193222 5.759331 2.042948
-346.760132 -353.553375 -68.974854 5.960525 2.003836
-453.063782 191.341721 -90.119942 1.165081 3.757565
-187.665283 -461.939819 -37.328941 5.529791 2.061075
-480.970001 97.545174 -95.670876 1.289167 4.083105
-95.670982 -490.392670 -19.030102 5.280725 2.057518
-490.392670 0.000038 -97.545120 1.401964 4.423884
-426.776733 191.341721 -176.776642 0.950392 3.902657
-384.089020 277.785095 -159.094849 0.841262 3.590355
-176.776825 -461.939819 -73.223328 5.529791 1.922220
-256.640106 -415.734833 -106.303787 5.759331 1.841363
-453.063812 97.545174 -187.665146 1.061254 4.237133
-90.120102 -490.392670 -37.328896 5.280725 1.986731
-461.939789 0.000038 -191.341644 1.169586 4.580930
-453.063843 -97.545105 -187.665222 1.271226 4.920835
-176.776871 461.939758 -73.223312 4.416137 3.892293
-90.120201 490.392639 -37.328949 4.665203 3.895849
-426.776733 -191.341644 -176.776581 1.362269 5.243788
-256.640137 415.734802 -106.303818 4.186596 3.910420
-384.089020 -277.785095 -159.094849 1.439213 5.537377
-326.640900 353.553375 -135.299042 3.985402 3.949533
-326.640900 -353.553375 -135.299042 1.499104 5.790319
-326.640900 353.553375 -135.299042 0.738056 3.312231
-326.640900 -353.553375 -135.299042 5.960526 1.747266
-384.088928 -191.341644 -256.639862 1.141397 5.385285
-407.746674 -97.545105 -272.447632 1.036750 5.071048
-230.970016 415.734802 -154.329193 4.214943 3.712707
-159.094986 461.939758 -106.303772 4.435662 3.756106
-345.670959 -277.785095 -230.969910 1.240434 5.664721
-293.969025 353.553375 -196.423767 0.569008 3.420527
-230.970016 415.734802 -154.329193 0.511921 3.164059
-256.640137 415.734802 -106.303818 0.644741 3.078970
-293.969025 -353.553375 -196.423767 1.330056 5.898616
-345.670959 277.785095 -230.969910 0.642482 3.717699
-230.969986 -415.734833 -154.329163 5.730985 1.643650
-293.969025 -353.553375 -196.423767 5.924447 1.495625
-384.088928 191.341721 -256.639923 0.729520 4.044153
-159.094940 -461.939819 -106.303780 5.510265 1.786033
-407.746643 97.545174 -272.447540 0.826777 4.387345
-81.105957 -490.392670 -54.193161 5.270771 1.917303
-415.734802 0.000038 -277.785004 0.930516 4.734084
-81.106049 490.392639 -54.193230 4.675157 3.826422
-135.299133 -461.939819 -135.299026 5.471965 1.657748
-196.423828 -415.734833 -196.423752 5.675382 1.457409
-346.760010 97.545174 -346.759918 0.594748 4.527968
-326.640808 191.341721 -326.640656 0.510953 4.176618
-68.974960 -490.392670 -68.974808 5.251245 1.851904
-353.553375 0.000038 -353.553253 0.693941 4.877462
-346.760040 -97.545105 -346.760010 0.804721 5.211671
-135.299164 461.939758 -135.299026 4.473963 3.627821
-68.975037 490.392639 -68.974899 4.694682 3.761023
-326.640808 -191.341644 -326.640594 0.922830 5.517749
-196.423859 415.734802 -196.423782 4.270546 3.526466
-293.968994 -277.785095 -293.968903 1.043729 5.783936
-250.000122 353.553375 -250.000015 0.401724 3.521911
-196.423859 415.734802 -196.423782 0.380487 3.243716
-250.000122 -353.553375 -250.000015 1.162772 6.000000
-293.968994 277.785095 -293.968903 0.445777 3.836914
-250.000122 -353.553375 -250.000015 5.853677 1.258585
-154.329254 415.734802 -230.969910 4.351271 3.358853
-106.303886 461.939758 -159.094818 4.529567 3.512368
-230.969971 -277.785095 -345.670837 0.856657 5.890440
-256.640076 -191.341644 -384.088715 0.714967 5.636090
-196.423843 353.553375 -293.968903 0.242633 3.612485
-154.329254 415.734802 -230.969910 0.255490 3.314879
-196.423843 -353.553375 -293.968903 5.750935 1.045255
-230.969971 -277.785095 -345.670837 5.879189 0.818068
-293.968994 -277.785095 -293.968903 6.000001 1.068918
-230.969971 277.785095 -345.670837 0.258705 3.943418
-154.329224 -415.734833 -230.969879 5.594657 1.289797
-256.640076 191.341721 -384.088776 0.303091 4.294959
-106.303871 -461.939819 -159.094818 5.416361 1.542295
-272.447601 97.545174 -407.746490 0.374082 4.653598
-54.193306 -490.392670 -81.105789 5.222899 1.793046
-277.785126 0.000038 -415.734650 0.468953 5.005554
-272.447632 -97.545105 -407.746613 0.584055 5.337302
-54.193363 490.392639 -81.105896 4.723029 3.702165
-187.665192 97.545174 -453.063599 0.173260 4.759408
-176.776794 191.341721 -426.776581 0.113921 4.394629
-37.329044 -490.392670 -90.119919 5.186821 1.742992
-73.223412 -461.939819 -176.776688 5.345592 1.444110
-191.341736 0.000038 -461.939545 0.264196 5.113437
-187.665192 -97.545105 -453.063721 0.383233 5.443111
-73.223427 461.939758 -176.776688 4.600337 3.414182
-37.329079 490.392639 -90.120041 4.759107 3.652111
-176.776810 -191.341644 -426.776520 0.525797 5.735761
-106.303864 415.734802 -256.639984 4.454013 3.216311
-159.094910 -277.785095 -384.088837 0.686409 5.980141
-135.299133 353.553375 -326.640747 4.325759 3.066100
-135.299133 -353.553375 -326.640747 5.620169 0.863832
-159.094910 -277.785095 -384.088837 5.725424 0.604737
-159.094910 277.785095 -384.088837 0.088457 4.033119
-135.299133 353.553375 -326.640747 0.097848 3.688771
-106.303841 -415.734833 -256.639954 5.491915 1.147254
-81.105919 -277.785095 -407.746521 5.544616 0.437125
-90.120110 -191.341644 -453.063538 5.602732 0.193685
-68.974953 353.553375 -346.759949 2.478627 2.546248
-54.193287 415.734802 -272.447540 2.620107 2.830107
-106.303864 415.734802 -256.639984 2.519630 2.884652
-68.974953 -353.553375 -346.759949 5.466404 0.721290
-81.105919 277.785095 -407.746521 2.358382 2.222623
-135.299133 353.553375 -326.640747 2.350744 2.615670
-54.193272 -415.734833 -272.447510 5.371102 1.035259
-90.120087 191.341721 -453.063568 2.263992 1.871670
-159.094910 277.785095 -384.088837 2.208007 2.304255
-37.329025 -461.939819 -187.665131 5.262374 1.366966
-187.665192 97.545174 -453.063599 2.021706 1.603164
-95.670929 97.545174 -480.969727 2.199085 1.506874
-19.030254 -490.392670 -95.670792 5.144397 1.703665
-97.545212 0.000038 -490.392395 0.087542 5.196965
-95.670929 97.545174 -480.969727 0.000000 4.841331
-95.670898 -97.545105 -480.969849 0.209972 5.525034
-37.329041 461.939758 -187.665131 4.683554 3.337039
-19.030264 490.392639 -95.670914 4.801531 3.612783
-90.120110 -191.341644 -453.063538 0.362589 5.812930
-54.193287 415.734802 -272.447540 4.574825 3.104315
-0.000150 -490.392670 -97.545090 5.097258 1.676575
-0.000110 -461.939819 -191.341690 5.169908 1.313828
-0.000095 0.000038 -499.999725 2.380251 1.058266
-0.000095 97.545174 -490.392456 2.409067 1.424499
-95.670898 -97.545105 -480.969849 2.166467 0.791824
-0.000041 -97.545105 -490.392548 2.376450 0.709449
-0.000121 461.939758 -191.341690 4.776019 3.283902
-0.000137 490.392639 -97.545212 4.848669 3.585694
-0.000163 -191.341644 -461.939575 2.397810 0.391454
-0.000102 415.734802 -277.785065 4.709065 3.027172
-0.000087 -277.785095 -415.734711 5.343712 0.321671
-0.000163 -191.341644 -461.939575 5.379500 0.065400
-0.000110 353.553375 -353.553375 2.630016 2.486859
-0.000102 415.734802 -277.785065 2.739053 2.783446
-0.000110 -353.553375 -353.553375 5.295549 0.623104
-0.000087 277.785095 -415.734711 2.536397 2.152789
-0.000091 -415.734833 -277.785034 5.236863 0.958115
-0.000133 191.341721 -461.939575 2.461791 1.794074
68.974739 -353.553375 -346.759949 5.114171 0.573049
81.105736 -277.785095 -407.746460 5.130434 0.262813
81.105736 277.785095 -407.746460 2.735211 2.097437
68.974739 353.553375 -346.759949 2.799094 2.439785
54.193081 -415.734833 -272.447479 5.094356 0.918787
90.119812 191.341721 -453.063507 2.682702 1.732569
37.328800 -461.939819 -187.665085 5.071747 1.286739
95.670731 97.545174 -480.969696 2.643585 1.359206
19.029953 -490.392670 -95.670784 5.047216 1.662765
97.545013 0.000038 -490.392365 2.619363 0.991693
95.670799 -97.545105 -480.969757 2.610967 0.644156
37.328789 461.939758 -187.665100 4.874181 3.256812
19.029989 490.392639 -95.670898 4.898711 3.571884
90.119781 -191.341644 -453.063507 2.618720 0.329949
54.193077 415.734802 -272.447479 4.851573 2.987844
90.119781 -191.341644 -453.063507 5.142518 0.000000
54.193077 415.734802 -272.447479 2.871897 2.746460
187.665054 -97.545105 -453.063568 2.861006 0.598454
191.341522 0.000038 -461.939484 2.874300 0.945096
73.223175 461.939758 -176.776642 4.974265 3.256812
37.328796 490.392639 -90.120003 4.949734 3.571884
176.776459 -191.341644 -426.776459 2.854252 0.286899
106.303635 415.734802 -256.639893 4.996873 2.987844
159.094696 -277.785095 -384.088745 4.912978 0.262813
176.776459 -191.341644 -426.776459 4.900893 0.000000
135.298920 353.553375 -326.640717 2.979362 2.406836
106.303635 415.734802 -256.639893 3.013532 2.720572
135.298920 -353.553375 -326.640717 4.929240 0.573049
159.094696 277.785095 -384.088745 2.947184 2.058692
106.303642 -415.734833 -256.639893 4.949056 0.918787
176.776489 191.341721 -426.776459 2.918233 1.689519
73.223175 -461.939819 -176.776627 4.971663 1.286739
187.664978 97.545174 -453.063538 2.893624 1.313504
37.328739 -490.392670 -90.119904 4.996194 1.662765
230.969727 277.785095 -345.670715 3.164170 2.038045
196.423630 353.553375 -293.968872 3.163894 2.389278
154.329010 -415.734833 -230.969772 4.806548 0.958115
196.423630 -353.553375 -293.968872 4.747862 0.623104
256.639740 191.341721 -384.088654 3.159336 1.666578
106.303619 -461.939819 -159.094757 4.873502 1.313828
272.447357 97.545174 -407.746368 3.149576 1.289149
54.192997 -490.392670 -81.105766 4.946152 1.676575
277.784882 0.000038 -415.734528 3.135267 0.920264
272.447449 -97.545105 -407.746399 3.116959 0.574099
106.303619 461.939758 -159.094757 5.072426 3.283901
54.193073 490.392639 -81.105850 4.999776 3.585694
256.639709 -191.341644 -384.088654 3.095354 0.263957
154.328995 415.734802 -230.969772 3.158518 2.706776
106.303619 461.939758 -159.094757 3.148249 2.978340
73.223175 461.939758 -176.776642 3.048381 2.987843
159.094696 -277.785095 -384.088745 2.854297 0.022403
230.969727 -277.785095 -345.670715 3.071283 0.001756
230.969727 -277.785095 -345.670715 4.699699 0.321671
346.759827 -97.545105 -346.759766 3.368989 0.572028
353.553101 0.000038 -353.553131 3.392234 0.918152
135.298874 461.939758 -135.298950 5.164891 3.337039
68.974731 490.392639 -68.974854 5.046914 3.612783
326.640411 -191.341644 -326.640533 3.332760 0.262006
196.423569 415.734802 -196.423630 5.273620 3.104316
293.968719 -277.785095 -293.968750 3.284944 0.000000
249.999878 353.553375 -249.999969 3.345597 2.387784
196.423569 415.734802 -196.423630 3.301281 2.705603
249.999878 -353.553375 -249.999969 4.577007 0.721288
293.968719 -277.785095 -293.968750 4.498796 0.437124
293.968719 277.785095 -293.968750 3.377830 2.036289
196.423584 -415.734833 -196.423630 4.672308 1.035258
326.640442 191.341721 -326.640533 3.396741 1.664626
135.298874 -461.939819 -135.298950 4.781036 1.366966
346.759705 97.545174 -346.759735 3.401605 1.287078
68.974640 -490.392670 -68.974777 4.899014 1.703665
230.969696 -415.734833 -154.329025 4.551496 1.147253
293.968781 -353.553375 -196.423706 4.423243 0.863831
384.088531 191.341721 -256.639801 3.621329 1.683741
345.670654 277.785095 -230.969742 3.579954 2.053492
159.094666 -461.939819 -106.303688 4.697819 1.444109
407.746277 97.545174 -272.447357 3.640027 1.307369
81.105621 -490.392670 -54.193130 4.856590 1.742992
415.734467 0.000038 -277.784882 3.635326 0.938841
407.746399 -97.545105 -272.447357 3.607409 0.592319
159.094666 461.939758 -106.303688 5.248108 3.414182
81.105728 490.392639 -54.193188 5.089338 3.652111
384.088501 -191.341644 -256.639801 3.557348 0.281120
230.969696 415.734802 -154.329025 5.394432 3.216311
345.670654 -277.785095 -230.969742 4.317987 0.604736
384.088501 -191.341644 -256.639801 4.239777 0.379924
293.968781 353.553375 -196.423706 3.517489 2.402413
230.969696 415.734802 -154.329025 3.436336 2.717097
176.776520 461.939758 -73.223236 5.318879 3.512367
90.119873 490.392639 -37.328903 5.125417 3.702165
426.776276 -191.341644 -176.776550 3.760486 0.320565
453.063507 -97.545105 -187.664932 3.823060 0.634194
256.639771 415.734802 -106.303650 5.497174 3.358853
384.088654 -277.785095 -159.094696 4.164223 0.818066
426.776276 -191.341644 -176.776550 4.068922 0.616964
326.640625 353.553375 -135.298981 3.672965 2.432603
256.639771 415.734802 -106.303650 3.558492 2.740817
326.640625 -353.553375 -135.298981 4.292476 1.045253
384.088654 277.785095 -159.094696 3.762774 2.088991
256.639771 -415.734833 -106.303650 4.448753 1.289796
426.776306 191.341721 -176.776550 3.824468 1.723186
176.776520 -461.939819 -73.223236 4.627049 1.542294
453.063385 97.545174 -187.664948 3.855677 1.349244
90.119751 -490.392670 -37.328873 4.820511 1.793046
461.939392 0.000038 -191.341522 3.855202 0.981536
453.063293 191.341721 -90.119881 3.998350 1.781446
407.746338 277.785095 -81.105728 3.919263 2.141424
187.664948 -461.939819 -37.328850 4.571445 1.657748
272.447296 -415.734833 -54.193089 4.368029 1.457408
480.969482 97.545174 -95.670692 4.040269 1.411092
95.670624 -490.392670 -19.030083 4.792165 1.851904
490.392242 0.000038 -97.545013 4.043410 1.044596
453.063507 -97.545105 -187.664932 3.822158 5.331156
480.969604 -97.545105 -95.670654 3.663819 5.200648
490.392242 0.000038 -97.545013 3.784486 4.865665
187.664948 461.939758 -37.328850 5.374482 3.627821
95.670753 490.392639 -19.030090 5.153763 3.761023
453.063263 -191.341644 -90.119888 3.516427 5.509018
272.447296 415.734802 -54.193089 5.577899 3.526466
384.088654 -277.785095 -159.094696 3.482209 5.889566
407.746338 -277.785095 -81.105728 3.347975 5.778926
346.759827 353.553375 -68.974792 3.806048 2.477193
272.447296 415.734802 -54.193089 3.663055 2.775851
346.759827 -353.553375 -68.974792 4.189734 1.258584
407.746338 -277.785095 -81.105728 4.043410 1.068916
-0.000012 500.000000 -0.000062 4.924223 3.920952
-0.000163 -500.000000 0.000000 5.021705 2.032415
97.545044 -490.392670 0.000000 4.772639 1.917303
490.392670 -97.545105 0.000000 3.474721 5.056664
346.759827 353.553375 -68.974792 5.756195 3.460852
353.553375 353.553375 0.000000 5.826965 3.697892
353.553375 -353.553375 0.000000 3.028605 5.896194
415.734833 277.785095 0.000000 4.043410 2.208774
353.553375 353.553375 0.000000 3.911626 2.534471
453.063293 191.341721 -90.119881 3.928304 4.167886
480.969482 97.545174 -95.670692 3.873791 4.516944
490.392639 97.545174 0.000000 3.684694 4.372962
256.639923 -415.734833 106.303810 2.617705 5.908875
293.968872 277.785095 293.968994 5.902519 4.884450
196.423676 -353.553375 293.969025 4.292475 2.705844
176.776611 -191.341644 426.776764 0.075199 1.025469
135.298935 -353.553375 326.640900 0.329039 0.372172
176.776581 191.341721 426.776764 5.706153 5.573443
90.119850 191.341721 453.063782 0.178304 2.518794
97.545044 0.000038 490.392700 0.144449 1.845589
-73.223495 -461.939819 176.776749 1.026677 0.000000
-326.640869 191.341721 326.640747 4.343197 5.759685
-426.776794 191.341721 176.776703 1.692616 3.355889
-461.939819 0.000038 191.341705 1.972964 3.989113
-346.760162 -353.553375 68.974854 5.853677 2.492516
-453.063782 -191.341644 90.120033 1.955340 4.819958
-353.553589 -353.553375 0.000001 1.816689 5.569739
-196.423843 353.553375 -293.968903 4.194993 3.247522
-176.776810 -191.341644 -426.776520 5.803636 0.379926
-176.776794 191.341721 -426.776581 2.096905 1.962374
-97.545212 0.000038 -490.392395 2.166155 1.142254
-90.120110 -191.341644 -453.063538 2.200010 0.469049
154.328995 415.734802 -230.969772 5.139380 3.027172
326.640411 -191.341644 -326.640533 4.440680 0.193684
461.939392 0.000038 -191.341522 3.945927 4.998731
426.776276 -191.341644 -176.776550 3.665579 5.631954
346.759827 -353.553375 -68.974792 3.164937 6.000000
407.746338 277.785095 -81.105728 3.945927 3.831905
3 0 1 2
3 3 4 5
3 6 1 0
3 7 3 8
3 9 6 10
3 11 12 13
3 14 15 16
3 17 11 18
3 19 14 20
3 21 17 22
3 23 19 24
3 25 26 21
3 2 26 25
3 4 27 28
3 29 30 26
3 31 32 27
3 33 29 2
3 34 31 4
3 35 33 1
3 36 34 3
3 9 37 35
3 38 39 12
3 14 40 41
3 17 42 38
3 19 43 40
3 44 42 17
3 45 43 19
3 30 44 21
3 46 47 39
3 48 49 37
3 42 50 46
3 51 52 40
3 53 50 42
3 54 51 43
3 55 53 44
3 29 56 55
3 57 58 32
3 59 56 29
3 34 60 57
3 61 59 33
3 36 62 60
3 49 61 35
3 56 63 64
3 65 66 58
3 67 63 56
3 68 65 57
3 69 67 59
3 62 70 68
3 71 69 61
3 72 73 47
3 48 74 71
3 75 72 46
3 76 77 52
3 78 75 50
3 54 79 76
3 55 64 78
3 80 81 71
3 82 83 72
3 84 85 77
3 78 86 82
3 87 84 76
3 88 86 78
3 63 89 88
3 90 91 66
3 92 89 63
3 68 93 90
3 69 94 92
3 95 93 68
3 81 94 69
3 96 95 70
3 97 98 89
3 99 100 90
3 94 101 97
3 102 99 93
3 81 103 101
3 104 102 95
3 85 105 106
3 107 108 83
3 109 105 85
3 86 110 107
3 87 111 109
3 112 110 86
3 89 98 112
3 100 113 91
3 114 115 105
3 110 116 117
3 111 118 114
3 119 116 110
3 98 120 119
3 121 122 113
3 123 124 125
3 126 121 100
3 127 128 123
3 129 126 99
3 130 128 127
3 131 129 102
3 132 133 130
3 134 131 104
3 135 136 121
3 128 137 138
3 139 135 126
3 140 137 128
3 141 139 129
3 142 140 130
3 143 141 131
3 144 145 115
3 146 147 148
3 149 144 114
3 150 147 146
3 124 151 150
3 136 152 122
3 138 151 124
3 147 153 154
3 149 155 156
3 157 153 147
3 151 158 157
3 159 160 152
3 161 158 151
3 162 159 136
3 137 163 161
3 139 164 162
3 140 165 163
3 166 164 139
3 142 167 165
3 168 166 141
3 156 169 145
3 163 170 171
3 172 173 162
3 174 170 163
3 175 172 164
3 167 176 174
3 177 175 166
3 178 179 169
3 180 181 154
3 155 182 178
3 183 180 153
3 158 184 183
3 185 186 160
3 171 184 158
3 173 185 159
3 182 187 188
3 189 190 180
3 184 191 189
3 192 193 186
3 194 191 184
3 195 192 185
3 170 196 194
3 197 195 173
3 174 198 196
3 199 197 172
3 176 200 198
3 201 202 203
3 204 200 176
3 180 190 201
3 205 206 195
3 198 207 208
3 209 205 197
3 200 210 207
3 201 211 212
3 213 214 215
3 190 216 211
3 187 217 213
3 218 216 190
3 191 219 218
3 220 221 193
3 222 219 191
3 195 206 220
3 196 208 222
3 223 224 216
3 219 225 223
3 226 227 221
3 228 225 219
3 206 229 226
3 208 230 228
3 231 229 206
3 207 232 230
3 233 231 205
3 210 234 232
3 235 233 209
3 236 237 214
3 216 224 238
3 217 239 236
3 240 241 230
3 242 243 231
3 234 244 240
3 245 242 233
3 246 247 237
3 224 248 249
3 250 246 236
3 251 248 224
3 225 252 251
3 253 254 227
3 255 252 225
3 229 256 253
3 230 241 255
3 243 256 229
3 252 257 258
3 259 260 254
3 261 257 252
3 262 259 253
3 241 263 261
3 264 262 256
3 265 263 241
3 266 264 243
3 244 267 265
3 268 269 270
3 246 271 272
3 273 274 268
3 275 271 246
3 276 274 273
3 272 277 278
3 279 280 269
3 281 277 272
3 274 282 279
3 283 281 271
3 284 282 274
3 285 286 284
3 287 288 260
3 289 286 285
3 262 290 287
3 291 292 289
3 293 290 262
3 294 295 263
3 280 296 297
3 298 299 288
3 300 301 286
3 290 302 298
3 292 303 300
3 304 302 290
3 305 303 292
3 280 306 307
3 277 308 309
3 310 306 280
3 311 308 277
3 282 312 310
3 313 311 281
3 314 312 282
3 286 301 314
3 315 316 306
3 311 317 318
3 312 319 315
3 320 317 311
3 321 319 312
3 301 322 321
3 323 324 299
3 325 322 301
3 326 323 298
3 303 327 325
3 328 326 302
3 329 327 303
3 306 316 330
3 318 331 309
3 332 333 322
3 326 334 335
3 327 336 332
3 337 338 339
3 329 340 336
3 341 337 330
3 318 342 343
3 344 341 316
3 317 345 342
3 319 346 344
3 347 345 317
3 348 346 319
3 322 333 348
3 335 349 324
3 345 350 351
3 346 352 353
3 347 354 350
3 355 352 346
3 333 356 355
3 357 358 349
3 359 356 333
3 360 357 335
3 336 361 359
3 362 363 338
3 340 364 361
3 365 362 337
3 342 351 366
3 353 365 341
3 360 367 368
3 361 369 370
3 371 372 363
3 373 374 375
3 376 371 362
3 351 377 373
3 378 376 365
3 350 379 377
3 352 380 378
3 381 379 350
3 382 380 352
3 356 383 382
3 368 384 358
3 370 383 356
3 380 385 386
3 387 388 379
3 389 385 380
3 383 390 389
3 391 392 384
3 393 390 383
3 394 391 368
3 369 395 393
3 396 394 367
3 373 397 398
3 399 400 371
3 377 401 397
3 386 399 376
3 388 401 377
3 398 402 403
3 404 405 406
3 407 402 398
3 408 404 409
3 401 410 407
3 411 408 412
3 413 410 401
3 414 415 411
3 416 413 388
3 417 418 385
3 390 419 417
3 420 421 392
3 422 419 390
3 423 420 391
3 424 425 413
3 426 427 415
3 428 429 426
3 430 431 421
3 432 429 428
3 433 430 420
3 402 434 435
3 436 437 405
3 438 434 402
3 439 436 404
3 410 440 438
3 441 439 408
3 425 440 410
3 415 427 441
3 442 443 434
3 439 444 445
3 440 446 442
3 447 444 439
3 448 446 440
3 427 449 447
3 450 448 425
3 451 449 427
3 429 452 451
3 453 454 431
3 455 452 429
3 456 453 430
3 434 443 457
3 445 458 437
3 452 459 460
3 461 462 454
3 463 459 452
3 464 461 453
3 443 465 466
3 467 468 458
3 442 469 465
3 470 467 445
3 446 471 469
3 472 470 444
3 448 473 471
3 449 474 472
3 475 473 448
3 460 474 449
3 476 477 467
3 471 478 479
3 480 476 470
3 481 478 471
3 482 480 472
3 483 481 473
3 484 482 474
3 459 485 484
3 486 487 462
3 488 485 459
3 489 490 491
3 492 493 488
3 477 489 468
3 469 479 494
3 485 495 496
3 497 498 487
3 499 495 485
3 500 497 486
3 493 501 499
3 502 503 489
3 504 505 494
3 476 506 502
3 478 507 504
3 508 506 476
3 509 507 478
3 482 510 508
3 511 509 481
3 496 510 482
3 507 512 513
3 514 515 506
3 509 516 512
3 510 517 514
3 518 516 509
3 519 517 510
3 495 520 519
3 521 522 498
3 523 520 495
3 524 521 497
3 505 525 526
3 527 528 503
3 513 525 505
3 506 515 527
3 529 530 522
3 531 532 520
3 533 529 521
3 525 534 535
3 536 537 528
3 538 534 525
3 515 539 536
3 512 540 538
3 541 539 515
3 516 542 540
3 517 543 541
3 544 542 516
3 519 545 543
3 520 532 545
3 546 547 539
3 542 548 549
3 543 550 546
3 551 548 542
3 552 550 543
3 553 554 555
3 556 557 530
3 558 554 553
3 559 556 529
3 560 561 558
3 562 563 537
3 564 565 534
3 539 547 562
3 540 549 564
3 28 27 566
3 567 23 568
3 27 32 566
3 567 45 23
3 32 58 566
3 567 54 45
3 58 66 566
3 567 79 54
3 66 91 566
3 567 87 79
3 91 113 566
3 567 111 87
3 113 122 566
3 567 118 111
3 122 152 566
3 567 149 118
3 152 160 566
3 567 155 149
3 160 186 566
3 567 182 155
3 186 193 566
3 567 187 182
3 193 221 566
3 567 217 187
3 221 227 566
3 567 239 217
3 227 254 566
3 567 250 239
3 567 275 250
3 254 260 566
3 260 288 566
3 567 283 275
3 288 299 566
3 567 313 283
3 299 324 566
3 567 320 313
3 324 349 566
3 567 347 320
3 349 358 566
3 567 354 347
3 358 384 566
3 567 381 354
3 384 392 566
3 567 387 381
3 392 421 566
3 567 416 387
3 421 431 566
3 567 424 416
3 431 454 566
3 567 450 424
3 454 462 566
3 567 475 450
3 462 487 566
3 567 483 475
3 487 498 566
3 567 511 483
3 498 522 566
3 567 518 511
3 522 530 566
3 567 544 518
3 530 557 566
3 567 551 544
3 0 569 554
3 559 8 5
3 10 0 558
3 570 571 8
3 572 10 561
3 547 573 574
3 20 16 564
3 575 22 18
3 24 20 549
3 576 577 22
3 568 24 548
3 555 25 577
3 557 28 566
3 567 568 551
3 554 569 25
3 556 5 28
3 569 0 2
3 8 3 5
3 10 6 0
3 571 7 8
3 572 9 10
3 18 11 13
3 20 14 16
3 22 17 18
3 24 19 20
3 577 21 22
3 568 23 24
3 577 25 21
3 569 2 25
3 5 4 28
3 2 29 26
3 4 31 27
3 1 33 2
3 3 34 4
3 6 35 1
3 7 36 3
3 6 9 35
3 11 38 12
3 15 14 41
3 11 17 38
3 14 19 40
3 21 44 17
3 23 45 19
3 26 30 21
3 38 46 39
3 578 48 37
3 38 42 46
3 43 51 40
3 44 53 42
3 45 54 43
3 30 55 44
3 30 29 55
3 31 57 32
3 33 59 29
3 31 34 57
3 35 61 33
3 34 36 60
3 37 49 35
3 55 56 64
3 57 65 58
3 59 67 56
3 60 68 57
3 61 69 59
3 60 62 68
3 49 71 61
3 46 72 47
3 49 48 71
3 50 75 46
3 51 76 52
3 53 78 50
3 51 54 76
3 53 55 78
3 74 80 71
3 75 82 72
3 76 84 77
3 75 78 82
3 79 87 76
3 64 88 78
3 64 63 88
3 65 90 66
3 67 92 63
3 65 68 90
3 67 69 92
3 70 95 68
3 71 81 69
3 579 96 70
3 92 97 89
3 93 99 90
3 92 94 97
3 95 102 93
3 94 81 101
3 96 104 95
3 580 85 106
3 82 107 83
3 84 109 85
3 82 86 107
3 84 87 109
3 88 112 86
3 88 89 112
3 90 100 91
3 109 114 105
3 107 110 117
3 109 111 114
3 112 119 110
3 112 98 119
3 100 121 113
3 581 123 125
3 99 126 100
3 581 127 123
3 102 129 99
3 582 130 127
3 104 131 102
3 582 132 130
3 583 134 104
3 126 135 121
3 123 128 138
3 129 139 126
3 130 140 128
3 131 141 129
3 133 142 130
3 134 143 131
3 114 144 115
3 584 146 148
3 118 149 114
3 585 150 146
3 585 124 150
3 121 136 122
3 123 138 124
3 148 147 154
3 144 149 156
3 150 157 147
3 150 151 157
3 136 159 152
3 138 161 151
3 135 162 136
3 138 137 161
3 135 139 162
3 137 140 163
3 141 166 139
3 140 142 165
3 143 168 141
3 144 156 145
3 161 163 171
3 164 172 162
3 165 174 163
3 166 175 164
3 165 167 174
3 168 177 166
3 156 178 169
3 153 180 154
3 156 155 178
3 157 183 153
3 157 158 183
3 159 185 160
3 161 171 158
3 162 173 159
3 178 182 188
3 183 189 180
3 183 184 189
3 185 192 186
3 171 194 184
3 173 195 185
3 171 170 194
3 172 197 173
3 170 174 196
3 175 199 172
3 174 176 198
3 181 201 203
3 586 204 176
3 181 180 201
3 197 205 195
3 196 198 208
3 199 209 197
3 198 200 207
3 202 201 212
3 188 213 215
3 201 190 211
3 188 187 213
3 189 218 190
3 189 191 218
3 192 220 193
3 194 222 191
3 192 195 220
3 194 196 222
3 218 223 216
3 218 219 223
3 220 226 221
3 222 228 219
3 220 206 226
3 222 208 228
3 205 231 206
3 208 207 230
3 209 233 205
3 207 210 232
3 587 235 209
3 213 236 214
3 211 216 238
3 213 217 236
3 232 240 230
3 233 242 231
3 232 234 240
3 235 245 233
3 236 246 237
3 238 224 249
3 239 250 236
3 223 251 224
3 223 225 251
3 226 253 227
3 228 255 225
3 226 229 253
3 228 230 255
3 231 243 229
3 251 252 258
3 253 259 254
3 255 261 252
3 256 262 253
3 255 241 261
3 243 264 256
3 240 265 241
3 242 266 243
3 240 244 265
3 588 268 270
3 247 246 272
3 588 273 268
3 250 275 246
3 589 276 273
3 590 272 278
3 268 279 269
3 271 281 272
3 268 274 279
3 275 283 271
3 276 284 274
3 276 285 284
3 259 287 260
3 591 289 285
3 259 262 287
3 591 291 289
3 264 293 262
3 265 294 263
3 269 280 297
3 287 298 288
3 289 300 286
3 287 290 298
3 289 292 300
3 293 304 290
3 592 305 292
3 296 280 307
3 278 277 309
3 279 310 280
3 281 311 277
3 279 282 310
3 283 313 281
3 284 314 282
3 284 286 314
3 310 315 306
3 308 311 318
3 310 312 315
3 313 320 311
3 314 321 312
3 314 301 321
3 298 323 299
3 300 325 301
3 302 326 298
3 300 303 325
3 304 328 302
3 305 329 303
3 307 306 330
3 308 318 309
3 325 332 322
3 323 326 335
3 325 327 332
3 330 337 339
3 327 329 336
3 316 341 330
3 331 318 343
3 315 344 316
3 318 317 342
3 315 319 344
3 320 347 317
3 321 348 319
3 321 322 348
3 323 335 324
3 342 345 351
3 344 346 353
3 345 347 350
3 348 355 346
3 348 333 355
3 335 357 349
3 332 359 333
3 334 360 335
3 332 336 359
3 337 362 338
3 336 340 361
3 341 365 337
3 343 342 366
3 344 353 341
3 357 360 368
3 359 361 370
3 362 371 363
3 366 373 375
3 365 376 362
3 366 351 373
3 353 378 365
3 351 350 377
3 353 352 378
3 354 381 350
3 355 382 352
3 355 356 382
3 357 368 358
3 359 370 356
3 378 380 386
3 381 387 379
3 382 389 380
3 382 383 389
3 368 391 384
3 370 393 383
3 367 394 368
3 370 369 393
3 593 396 367
3 374 373 398
3 376 399 371
3 373 377 397
3 378 386 376
3 379 388 377
3 594 398 403
3 409 404 406
3 397 407 398
3 412 408 409
3 397 401 407
3 595 411 412
3 388 413 401
3 595 414 411
3 387 416 388
3 389 417 385
3 389 390 417
3 391 420 392
3 393 422 390
3 394 423 391
3 416 424 413
3 596 426 415
3 596 428 426
3 420 430 421
3 597 432 428
3 423 433 420
3 403 402 435
3 404 436 405
3 407 438 402
3 408 439 404
3 407 410 438
3 411 441 408
3 413 425 410
3 411 415 441
3 438 442 434
3 436 439 445
3 438 440 442
3 441 447 439
3 425 448 440
3 441 427 447
3 424 450 425
3 426 451 427
3 426 429 451
3 430 453 431
3 432 455 429
3 433 456 430
3 435 434 457
3 436 445 437
3 451 452 460
3 453 461 454
3 455 463 452
3 456 464 453
3 457 443 466
3 445 467 458
3 443 442 465
3 444 470 445
3 442 446 469
3 447 472 444
3 446 448 471
3 447 449 472
3 450 475 448
3 451 460 449
3 470 476 467
3 469 471 479
3 472 480 470
3 473 481 471
3 474 482 472
3 475 483 473
3 460 484 474
3 460 459 484
3 461 486 462
3 463 488 459
3 468 489 491
3 463 492 488
3 467 477 468
3 465 469 494
3 484 485 496
3 486 497 487
3 488 499 485
3 598 500 486
3 488 493 499
3 477 502 489
3 479 504 494
3 477 476 502
3 479 478 504
3 480 508 476
3 481 509 478
3 480 482 508
3 483 511 481
3 484 496 482
3 504 507 513
3 508 514 506
3 507 509 512
3 508 510 514
3 511 518 509
3 496 519 510
3 496 495 519
3 497 521 498
3 499 523 495
3 500 524 497
3 599 505 526
3 502 527 503
3 504 513 505
3 502 506 527
3 521 529 522
3 523 531 520
3 524 533 521
3 526 525 535
3 527 536 528
3 513 538 525
3 527 515 536
3 513 512 538
3 514 541 515
3 512 516 540
3 514 517 541
3 518 544 516
3 517 519 543
3 519 520 545
3 541 546 539
3 540 542 549
3 541 543 546
3 544 551 542
3 545 552 543
3 600 553 555
3 529 556 530
3 601 558 553
3 533 559 529
3 601 560 558
3 536 562 537
3 538 564 534
3 536 539 562
3 538 540 564
3 558 0 554
3 556 559 5
3 561 10 558
3 559 570 8
3 602 572 561
3 562 547 574
3 549 20 564
3 603 575 18
3 548 24 549
3 575 576 22
3 551 568 548
3 576 555 577
3 555 554 25
3 557 556 28
