ply
format ascii 1.0
comment Created by Blender 2.75 (sub 0) - www.blender.org, source file: ''
element vertex 12
property float x
property float y
property float z
property uchar red
property uchar green
property uchar blue
element face 20
property list uchar uint vertex_indices
end_header
0.000000 0.021694 0.000000 255 97 0
-0.018788 0.010847 0.000000 255 97 0
-0.018788 0.010847 1.000000 255 97 0
-0.018788 -0.010847 0.000000 255 97 0
-0.018788 -0.010847 1.000000 255 97 0
0.000000 -0.021694 0.000000 255 97 0
0.000000 -0.021694 1.000000 255 97 0
0.018788 -0.010847 0.000000 255 97 0
0.018788 -0.010847 1.000000 255 97 0
0.018788 0.010847 0.000000 255 97 0
0.000000 0.021694 1.000000 255 97 0
0.018788 0.010847 1.000000 255 97 0
3 0 1 2
3 1 3 4
3 3 5 6
3 5 7 8
3 1 9 7
3 9 0 10
3 7 9 11
3 11 4 8
3 10 0 2
3 2 1 4
3 4 3 6
3 6 5 8
3 5 3 1
3 1 7 5
3 1 0 9
3 11 9 10
3 8 7 11
3 4 11 10
3 4 6 8
3 10 2 4
